# xmcd
#
# Track frame offsets: 
#        150
#        12775
#        33455
#        46410
#        58690
#        66860
#        80107
#        95537
#        112654
#        132321
#        147601
#        163421
#        172048
#
# Disc length: 2472 seconds
#
# Revision: 0
# Processed by: cddbd v1.5.2PL0 Copyright (c) Steve Scherf et al.
# Submitted via: ExactAudioCopy v1.0b4
#
DISCID=ba09a60d
DTITLE=Diana Braithwaite and Chris Whiteley - Morning Sun
DYEAR=2006
DGENRE=Chicago Blues
TTITLE0=Cold And Lonely Night
TTITLE1=Birds That Whistle
TTITLE2=Great Big City
TTITLE3=Blessing In Disguise
TTITLE4=Travellin' Blues
TTITLE5=Mr Subway Man
TTITLE6=No Longer Will I Roam
TTITLE7=The Drifter
TTITLE8=Box Car Blues
TTITLE9=In My Garden
TTITLE10=Don't Mistreat Me
TTITLE11=Leaving It All Behind
TTITLE12=Morning Sun
EXTD=
EXTT0=
EXTT1=
EXTT2=
EXTT3=
EXTT4=
EXTT5=
EXTT6=
EXTT7=
EXTT8=
EXTT9=
EXTT10=
EXTT11=
EXTT12=
PLAYORDER=
